<svg width="19" height="19" viewBox="0 0 19 19" fill="none" xmlns="http://www.w3.org/2000/svg">
<path d="M0 16V13.2C0 12.6333 0.145833 12.1125 0.4375 11.6375C0.729167 11.1625 1.11667 10.8 1.6 10.55C2.63333 10.0333 3.68333 9.64583 4.75 9.3875C5.81667 9.12917 6.9 9 8 9C8.33333 9 8.66667 9.0125 9 9.0375C9.33333 9.0625 9.66667 9.1 10 9.15C9.93333 10.1167 10.1083 11.0292 10.525 11.8875C10.9417 12.7458 11.55 13.45 12.35 14V16H0ZM16 19L14.5 17.5V12.85C13.7667 12.6333 13.1667 12.2208 12.7 11.6125C12.2333 11.0042 12 10.3 12 9.5C12 8.53333 12.3417 7.70833 13.025 7.025C13.7083 6.34167 14.5333 6 15.5 6C16.4667 6 17.2917 6.34167 17.975 7.025C18.6583 7.70833 19 8.53333 19 9.5C19 10.25 18.7875 10.9167 18.3625 11.5C17.9375 12.0833 17.4 12.5 16.75 12.75L18 14L16.5 15.5L18 17L16 19ZM8 8C6.9 8 5.95833 7.60833 5.175 6.825C4.39167 6.04167 4 5.1 4 4C4 2.9 4.39167 1.95833 5.175 1.175C5.95833 0.391667 6.9 0 8 0C9.1 0 10.0417 0.391667 10.825 1.175C11.6083 1.95833 12 2.9 12 4C12 5.1 11.6083 6.04167 10.825 6.825C10.0417 7.60833 9.1 8 8 8ZM15.5 10C15.7833 10 16.0208 9.90417 16.2125 9.7125C16.4042 9.52083 16.5 9.28333 16.5 9C16.5 8.71667 16.4042 8.47917 16.2125 8.2875C16.0208 8.09583 15.7833 8 15.5 8C15.2167 8 14.9792 8.09583 14.7875 8.2875C14.5958 8.47917 14.5 8.71667 14.5 9C14.5 9.28333 14.5958 9.52083 14.7875 9.7125C14.9792 9.90417 15.2167 10 15.5 10Z" fill="#0B1C30"/>
</svg>
